<svg xmlns="http://www.w3.org/2000/svg" width="1252.71" height="309.7" viewBox="0 0 1252.71 309.7"><title>AbKrea</title><path fill="#fff" d="M97.86 152.24h92.33c-3.77-7.14-7.15-13.36-10.35-19.67-10.17-20-20.17-40.16-30.46-60.14-2.65-5.15-6.08-9.89-9.18-14.8-2.49-3.94-4.62-3-6.41.58q-7.93 15.85-15.8 31.74-25.8 52.15-51.6 104.29c-.76 1.53-3 3.29-4.57 3.31-19.81.23-39.61.15-59.87.15 3.23-6.31 6.45-12.75 9.81-19.13Q54.19 98.15 96.5 17.72c2-3.79 4.38-5.18 8.57-5.16 20.66.11 41.33.23 62-.23 7.31-.17 11.23 2.43 14.57 9 22.69 44.3 45.75 88.42 68.8 132.55 6.86 13.13 14.08 26.08 21.11 39.12.68 1.26 1.19 2.61 2.24 4.91H143.16c-8.33 0-16.66.49-25 .47-1.69 0-4.44-.87-4.9-2-5.11-13-9.88-26.13-14.68-39.25a29.3 29.3 0 0 1-.72-4.89M487.86 101.45c-.25-6.4-2.65-13.18-5.7-18.92-8.6-16.22-23.37-23.48-41.06-24.05-24-.78-48-.53-72-.72h-5.69V0h-46.22v198.52h5.07c11.66-.18 23.33-.39 35-.53 6.45-.08 6.44 0 6.44-6.64v-28.84l1.51-.47a46 46 0 0 1 2.84 5.51c3.18 8.76 6.39 17.52 9.24 26.39 1 3.07 2.38 4.24 5.6 4.19 19-.3 38 0 57-.73 27-1 44.59-15.87 47.65-42.62 1.98-17.58 1.01-35.57.32-53.33m-46.35 39.15c-.23 9.08-4.43 14.43-13.39 15-13.61.8-27.28.52-40.93.64-7.63.07-15.27 0-23.28 0v-60.7c2.52-.12 4.81-.31 7.1-.32 17.66-.05 35.32-.15 53-.08 11.61 0 17.54 5.85 17.73 17.47.13 9.33 0 18.66-.23 27.99M528.19 192.79V7.26h42.4v75.53c2.41-2 4.34-3.39 6-5 21.86-21.24 43.78-42.43 65.47-63.85 5.14-5.09 10.37-7.82 18-7.5 14.78.64 29.62.19 44.94.9-27.3 26.16-55.9 50.77-83.74 75.86l90 109.27c-3.26.19-5.16.39-7.06.39-15.17 0-30.33-.21-45.5-.11a8 8 0 0 1-7.08-3.55q-28.15-36.41-56.49-72.57c-4-5.14-3.92-5.16-8.85-.63-3.31 3-6.43 6.39-10.09 8.94-4.48 3.12-5.7 6.88-5.5 12.24.62 16.48.51 33 1 49.48.13 4.78-1.4 6.31-6.24 6.16-10.49-.32-21 0-31.49 0ZM1068.51 197.41a26 26 0 0 1-2.92.36c-36.15 0-72.31.09-108.46 0a51.73 51.73 0 0 1-29.69-9c-10.43-7.13-16.72-17.48-17.44-29.61a478 478 0 0 1-.1-56.38c1.39-23.51 19.6-37.95 39.9-39 31.9-1.63 63.92-1.37 95.88-1.22 13.26.06 22.61 8.53 23.85 21.76a180 180 0 0 1-.18 35.81c-1.4 13.16-11.72 21.18-26 21.41-21.66.35-43.34-.41-65 .38-9.83.36-16.66-1.69-20-11.48-.72-2.08-2.4-3.83-4.29-5.58-.64 9.58-2.17 19.16.75 28.39 1.56 5 6.11 7.35 11.43 7.37q18 .09 36 0c20.33-.07 40.65-.07 61-.35 4.08-.06 5.51 1 5.39 5.24-.32 10.51-.12 20.98-.12 31.9m-114.39-84.15a3.9 3.9 0 0 0 1.3.48c21.61.17 43.22.44 64.82.39 6.16 0 9.59-4.19 9.66-10.43.06-5.69-4.19-10.06-10.68-10.08-16.62 0-33.25-.06-49.86.5-12.26.41-16.8 6.53-15.24 19.14M1250.49 197.79h-18.41c-31.67.18-63.33.43-95 .51a85.3 85.3 0 0 1-15.4-1.24c-12.7-2.3-20.26-10.61-21.8-22.91a164.2 164.2 0 0 1-.69-34.36c1.42-16.19 11.9-25.18 28.06-25.33 22.5-.21 45 .1 67.5 0 4.87 0 7.31 1.43 7.45 6.74.12 4.12.84 8.6 6.83 9.85 0-9.82.38-19.06-.28-28.23-.15-2.16-3.45-4.78-5.9-5.91s-5.85-1.14-8.81-1.12q-42.75.35-85.5.88h-7V74.16c0-11.65 0-11.94 11.69-11.94q60 0 120 .33c10.7.06 17.46 6.56 17.51 17 .18 38.33.13 76.67.15 115-.06.81-.23 1.61-.4 3.24m-73.72-34.19v.05c9.33 0 18.65-.08 28 0 3.43 0 4.79-1.38 4.71-4.73-.11-4.66 0-9.33 0-14 0-2.43-.92-3.62-3.54-3.61-19 .08-38 0-56.94.16-4.44 0-7.08 2.7-7.22 7.28a54 54 0 0 0 .4 7.94c.58 4.72 3.34 6.93 8.14 6.88 8.8-.08 17.63-.01 26.45-.01ZM846.87 119.93c.41-6.11.67-11.39 1.15-16.66.27-3-.6-4.22-3.78-4.19-19.32.17-38.65.31-58 .21-5 0-4.67 3.19-4.67 6.32q0 35 .13 70v18.5c0 2.08 0 4-3 4-14-.09-28 0-42.49 0-.07-1.65-.23-3.42-.23-5.18.1-30 .16-60 .36-90 0-5.3 0-10.76 1.14-15.87 3.41-14.63 14.74-23.16 32.08-24.32 8.79-.59 17.64-.47 26.47-.49 29.49-.05 59 .06 88.47-.12 3.85 0 4.85 1.2 4.84 4.8 0 10.82.09 21.65.36 32.48.08 3.52-1.23 5.54-4.51 6.77-11.38 4.25-22.7 8.67-34 13a31 31 0 0 1-4.32.75M575.68 254.55c-1.77 8-3.36 14.86-4.85 21.78-2 9.11-4 18.21-5.7 27.37-.51 2.7-1.5 3.64-4.23 3.43-3.28-.25-6.59-.06-10.91-.06 1.09-5 2-9.13 2.9-13.25q6.6-29 13.22-57.93c1.2-5.31 6-6.39 10.73-1.87 4.94 4.68 9.49 9.8 14 14.88 9.21 10.29 18.3 20.7 27.46 31 .74.83 1.61 1.55 2.83 2.71 3.17-13.59 6.32-26.61 9.23-39.69 2.37-10.63 2.25-10.66 13.09-10.57 1.13 0 2.26.14 4 .25-2.18 8.87-4.26 17.38-6.37 25.88-3.49 14.06-6.93 28.13-10.57 42.14-.63 2.43-2.15 4.62-3.25 6.92-2.68-1.4-6-2.2-7.92-4.3-12.33-13.54-24.34-27.36-36.49-41.07-2.02-2.29-4.22-4.5-7.17-7.62M173.3 280.99c3.4-14.89 6.92-29.76 10.1-44.69.69-3.24 1.7-4.6 5.14-4.22 3.1.35 6.26.08 10.35.08-1.85 7.65-3.51 14.51-5.16 21.38-3.58 14.88-7 29.8-10.82 44.64-.79 3.13-2 7.55-4.3 8.59-4.12 1.87-6.6-2.66-9.11-5.41q-18.72-20.43-37.31-41c-1.09-1.2-2-2.57-3-3.86l-1.55.57c-2.32 10.29-4.67 20.58-6.94 30.89-1.21 5.52-2.17 11.1-3.5 16.6-.27 1.1-1.67 2.7-2.59 2.73-3.77.12-7.56-.28-12.16-.54 1.61-7.05 3.18-13.61 4.61-20.19 3.6-16.59 7.1-33.19 10.75-49.77.36-1.62 1.71-4.46 2.24-4.38 3.45.53 7.71.74 10 2.87 6.08 5.63 11.34 12.16 16.86 18.39q9.61 10.83 19.12 21.76c1.85 2.11 3.56 4.35 5.33 6.53ZM991.37 277.66c7.61 9.79 14.93 19.2 22.24 28.63.06.07-.08.29-.39 1.36-4.6 0-9.51.13-14.4-.1-1.07 0-2.3-1.23-3.09-2.19-3.71-4.48-7.28-9.08-10.91-13.62-2-2.47-3.62-5.41-6.08-7.24-2.9-2.14-6.52-3.3-9.83-4.89-1.24 2.78-2.88 5.47-3.62 8.38-1.34 5.31-2 10.8-3.31 16.13a4.86 4.86 0 0 1-3.25 3.09c-4.11.39-8.28.15-13.31.15.73-3.59 1.18-6.44 1.9-9.22 3.93-15.32 8-30.59 11.84-45.93 1.23-5 1.85-10.11 2.59-15.2.38-2.65.72-4.79 4.29-4.71 9.82.21 19.67-.26 29.45.35 11.09.69 18.13 6.34 20.16 14.88 2.07 8.71-2.67 18.8-11.64 24-3.97 2.32-8.28 4.05-12.64 6.13m-21.67-8.58c8.66 1.21 16 .4 22.62-3.51 8-4.68 10.1-17 3-20.22-5-2.32-11.5-1.5-17.35-1.93-.53 0-1.49.92-1.67 1.58-2.21 7.89-4.34 15.79-6.6 24.08M343.5 269.51c-2.45 10.37-4.37 19.82-7.07 29a11.07 11.07 0 0 1-5.83 6.23c-14.4 5.76-29.09 7-43.77.89-16.53-6.83-23.58-24.65-16.71-43.06 7.26-19.48 22.14-29.35 42.3-31.65 10.18-1.17 20.29-.37 30 3.39 2.55 1 5.94 1.24 4.46 5.54-1.57 4.61-5.06 7.17-8.82 6.1-4-1.14-7.87-2.74-11.9-3.73-21.53-5.31-43.82 12.64-42.57 34.78 1.15 20.27 22.38 25.55 34.57 19.61a8.9 8.9 0 0 0 4.19-5.1 140 140 0 0 0 3.5-17.58c.44-3.32 1.6-4.72 5-4.52 3.79.26 7.6.1 12.65.1M1252.71 307.06c-4.48 0-8 .29-11.38-.15a5.31 5.31 0 0 1-3.44-3.1 78.4 78.4 0 0 1-3-11.58c-.52-2.8-1.67-3.93-4.61-3.86-9 .19-18 0-26.95.29a8.38 8.38 0 0 0-5.36 2.71 104 104 0 0 0-9.27 12.34c-2 3.1-4.18 4.29-7.78 3.7-2.89-.48-5.86-.46-9.31-.7a16 16 0 0 1 1.34-3q24.77-33.5 49.64-66.91c1.52-2 3.57-4.34 5.82-5 6.66-1.91 8.56-.49 10 6.44q6.46 30.24 12.82 60.52c.58 2.37.9 4.82 1.48 8.3m-45.21-29.64h24.87c-2.24-8.77-4.28-16.78-6.32-24.79l-1.74-.09c-5.41 8-10.82 16-16.81 24.88M444.78 263.22h26.41c.84 8.42-.33 9.86-7.67 10-5.83.13-11.66.08-17.48.38-1.36.08-3.58 1-3.84 2-1.88 6.85-3.34 13.82-5.1 21.45h31.23c.57 9.18-.48 10.39-8.36 10.41-11.49 0-23 .1-34.46.15h-6.32c1.71-6.83 3.33-12.86 4.71-19 4-17.51 7.79-35.06 11.87-52.55.34-1.45 2.18-3.64 3.35-3.66 14.45-.25 28.91-.16 43.94-.16a53 53 0 0 0-1.08 6.44c-.1 3.32-1.77 4.09-4.82 4-7.65-.13-15.31-.08-23 .19-1.47 0-3.78 1.15-4.18 2.29-1.91 5.63-3.29 11.23-5.2 18.06M842.19 263.21h26.08c.74 8.66-.5 10-8.28 10.06-5.33 0-10.66.24-16 0-3.32-.12-4.67 1.16-5.31 4.37-1.27 6.32-3 12.55-4.67 19.59h30.72c2.16 8.57 1 10.24-6.79 10.26h-41.08c.71-3.88 1.1-6.78 1.78-9.63 4.89-20.56 9.8-41.12 14.88-61.63.37-1.49 2.17-3.73 3.34-3.75 14.13-.26 28.27-.17 42.24-.17 2.18 8.29.74 10.3-6.71 10.26-6.82 0-13.66.08-20.48-.07-3-.06-4.57 1.05-5.27 4-1.27 5.34-2.8 10.56-4.45 16.71M0 307.57c1.51-6.63 2.74-12.1 4-17.57 4.12-17.85 8.3-35.69 12.31-53.56.65-2.93 1.66-4.34 4.92-4.07 3.78.31 7.6.07 12.21.07-2.25 8.63-4.39 16.45-6.25 24.35-3.77 15.71-7.5 31.43-11 47.2-.65 2.91-1.78 3.85-4.65 3.66-3.49-.26-6.97-.08-11.54-.08M714.67 306.63c4.75-19.56 9.33-38.29 13.83-57 1.13-4.69 1.8-9.49 3.11-14.12a5.06 5.06 0 0 1 3.52-3c4.09-.38 8.25-.14 13.2-.14-3.05 12-6 23.25-8.76 34.51-2.93 11.78-6 23.54-8.58 35.39-.84 3.84-2.29 5.54-6.31 5-3.08-.48-6.23-.42-10.01-.64M1118.35 232.79c-.47 2.59-.71 4.35-1.12 6.08-5.16 21.49-10.4 43-15.47 64.49-.6 2.55-1.52 3.76-4.25 3.64-3.62-.17-7.26 0-11.66 0 .47-3.14.68-5.87 1.3-8.51 4.9-20.54 9.93-41 14.79-61.6.75-3.14 2.1-4.47 5.47-4.13s6.87.03 10.94.03M1098.4 224.57c7.1-8.4 16.32-13.95 26.41-17.78 2.34-.89 6.06 1.84 9.14 2.91 0 .56-.09 1.12-.13 1.69-8.58 5.26-17 10.88-25.86 15.56-2.37 1.24-6.24-.38-9.42-.68-.04-.56-.09-1.13-.14-1.7"/></svg>